Genre:Drama
Language:English
 
http://www.imdb.com/title/tt1454029/

Source:ERDNA/IMAGINE Thanks!

Format : MPEG-4
Format profile : Base Media
Codec ID : isom
File size : 1.43 GiB
Duration : 2h 18mn
Overall bit rate : 1 472 Kbps

Video
ID : 1
Format : AVC
Format/Info : Advanced Video Codec
Format profile : High@L4.1
Format settings, CABAC : Yes
Format settings, ReFrames : 3 frames
Codec ID : avc1
Codec ID/Info : Advanced Video Coding
Duration : 2h 18mn
Bit rate mode : Variable
Bit rate : 1 241 Kbps
Maximum bit rate : 6 512 Kbps
Width : 640 pixels
Height : 336 pixels
Display aspect ratio : 1.905
Frame rate mode : Constant
Frame rate : 29.970 fps
Color space : YUV
Chroma subsampling : 4:2:0
Bit depth : 8 bits
Scan type : Progressive
Bits/(Pixel*Frame) : 0.193
Stream size : 1.20 GiB (85%)
Writing library : x264

Audio
ID : 2
Format : AAC
Format/Info : Advanced Audio Codec
Format version : Version 4
Format profile : LC
Format settings, SBR : No
Codec ID : 40
Duration : 2h 18mn
Bit rate mode : Variable
Bit rate : 224 Kbps
Maximum bit rate : 253 Kbps
Channel(s) : 2 channels
Channel positions : Front: L R
Sampling rate : 48.0 KHz
Stream size : 222 MiB (15%)


Plot:
A look at what happens when a southern town's unspoken code of rules and behavior is shattered by three courageous women who strike up an unlikely friendship
 
http://www.pix2links.com/images/98680752224618667333.png
 
http://www.pix2links.com/images/77793256508059333593.png
 
http://www.pix2links.com/images/24226395743340289876.png
 
http://www.pix2links.com/images/27801459644781288270.png
 
http://www.pix2links.com/images/98165607182319551026.png
 
http://www.pix2links.com/images/38216212915340714903.png